<?xml version="1.0" encoding="utf-8"?>
<svg width="300" height="300" viewBox="0 0 300 300" fill="none" xmlns="http://www.w3.org/2000/svg">
  <defs>
    <clipPath id="clip_path_1">
      <rect width="78" height="78" />
    </clipPath>
  </defs>
  <g>
    <path d="M50 0L200 0C227.618 0 250 22.382 250 50L250 125L0 125L0 50C0 22.382 22.382 0 50 0L50 0Z" fill="#252526" transform="translate(25 25)" />
    <path d="M50 0L200 0C227.618 0 250 22.382 250 50L250 125L0 125L0 50C0 22.382 22.382 0 50 0L50 0Z" fill="#1E1E1F" transform="matrix(-1 -0 0 -1 275 274)" />
    <g transform="translate(25 25)">
      <path d="M0 125C0 66.0744 -1.49012e-06 36.6116 18.3059 18.3059C36.6116 -1.49012e-06 66.0744 0 125 0C183.925 0 213.389 -1.49012e-06 231.694 18.3059C250 36.6116 250 66.0744 250 125C250 183.925 250 213.389 231.694 231.694C213.389 250 183.925 250 125 250C66.0744 250 36.6116 250 18.3059 231.694C-1.49012e-06 213.389 0 183.925 0 125Z" fill="none" stroke-width="18" stroke="#FFC107" stroke-opacity="0" />
    </g>
    <g clip-path="url(#clip_path_1)" transform="matrix(1 0 0 1 174 42)">
      <path d="M45.8588 1.76442C45.2033 0.64118 43.9895 0 42.5339 0C42.5339 0 24.6631 0 24.6631 0C22.5297 0 20.3134 1.39216 19.3923 3.31237C19.3923 3.31237 0.439548 42.6751 0.439548 42.6751C-0.179318 43.959 -0.141153 45.3208 0.531734 46.401C1.20951 47.4908 2.40908 48.1255 3.83138 48.1558C3.83138 48.1558 17.8571 48.3323 17.8571 48.3323C17.8571 48.3323 7.70371 73.7124 7.70371 73.7124C7.45397 74.3455 6.92885 75.6723 7.8644 77.0359C8.27325 77.634 8.97491 78 9.69712 78C9.69712 78 9.86094 78 9.86094 78C11.2308 78 12.0563 76.9611 12.4525 76.4601C12.4525 76.4601 45.2607 35.2629 45.2607 35.2629C46.6606 33.5081 46.0831 31.9331 45.8715 31.475C45.6519 31.036 44.7706 29.5976 42.5353 29.5976C42.5353 29.5976 32.0955 29.5976 32.0955 29.5976C32.0955 29.5976 45.7568 5.52695 45.7568 5.52695C46.473 4.25731 46.5127 2.88276 45.8588 1.76442C45.8588 1.76442 45.8588 1.76442 45.8588 1.76442Z" fill="#FFC107" transform="matrix(1 0 0 1 15.839 -0.001)" />
    </g>
    <path d="M15.5959 32.4655L15.5959 69.696L32.5939 69.696L32.5939 32.4655L47.342 32.4655L47.342 19.2995L0.830254 19.2995L0.830254 32.4655L15.5959 32.4655ZM66.1123 68.905Q71.333 70.8562 77.5205 70.8562Q83.6377 70.8562 88.8232 68.905Q94.0088 66.9538 97.8232 63.403Q101.638 59.8347 103.765 55.0183Q105.892 50.1843 105.892 44.489Q105.892 38.7409 103.765 33.9597Q101.638 29.1608 97.8232 25.5925Q94.0088 22.0241 88.8232 20.0905Q83.6377 18.1394 77.4502 18.1394Q71.333 18.1394 66.1123 20.0905Q60.8916 22.0241 57.0596 25.5925Q53.2451 29.1608 51.1182 33.9597Q49.0088 38.7409 49.0088 44.489Q49.0088 50.1843 51.1182 55.0183Q53.2451 59.8347 57.0596 63.403Q60.8916 66.9538 66.1123 68.905ZM81.8623 56.2312Q79.8232 57.0925 77.4502 57.0925Q75.0772 57.0925 73.0205 56.2312Q70.9639 55.3698 69.417 53.7526Q67.8701 52.1355 67.0088 49.7976Q66.1475 47.4421 66.1475 44.489Q66.1475 41.5358 67.0088 39.198Q67.8701 36.8601 69.417 35.2429Q70.9639 33.6257 73.0205 32.7644Q75.0772 31.903 77.4502 31.903Q79.8232 31.903 81.8623 32.7644Q83.919 33.6257 85.4658 35.2429Q87.0127 36.8601 87.874 39.198Q88.7529 41.5358 88.7529 44.489Q88.7529 47.4421 87.874 49.7976Q87.0127 52.1355 85.4658 53.7526Q83.919 55.3698 81.8623 56.2312ZM112.069 19.2995L112.069 69.696L136.924 69.696Q145.344 69.696 151.743 66.6374Q158.159 63.5788 161.762 57.9362Q165.366 52.2761 165.366 44.489Q165.366 36.6491 161.762 31.0417Q158.159 25.4167 151.743 22.3581Q145.344 19.2995 136.924 19.2995L112.069 19.2995ZM136.203 56.4421L129.067 56.4421L129.067 32.5358L136.203 32.5358Q139.789 32.5358 142.496 33.9069Q145.203 35.278 146.715 37.9499Q148.227 40.6042 148.227 44.489Q148.227 48.3034 146.715 51.0105Q145.203 53.7175 142.496 55.0886Q139.789 56.4421 136.203 56.4421ZM186.64 68.905Q191.861 70.8562 198.049 70.8562Q204.166 70.8562 209.351 68.905Q214.537 66.9538 218.351 63.403Q222.166 59.8347 224.293 55.0183Q226.42 50.1843 226.42 44.489Q226.42 38.7409 224.293 33.9597Q222.166 29.1608 218.351 25.5925Q214.537 22.0241 209.351 20.0905Q204.166 18.1394 197.978 18.1394Q191.861 18.1394 186.64 20.0905Q181.42 22.0241 177.588 25.5925Q173.773 29.1608 171.646 33.9597Q169.537 38.7409 169.537 44.489Q169.537 50.1843 171.646 55.0183Q173.773 59.8347 177.588 63.403Q181.42 66.9538 186.64 68.905ZM202.39 56.2312Q200.351 57.0925 197.978 57.0925Q195.605 57.0925 193.549 56.2312Q191.492 55.3698 189.945 53.7526Q188.398 52.1355 187.537 49.7976Q186.675 47.4421 186.675 44.489Q186.675 41.5358 187.537 39.198Q188.398 36.8601 189.945 35.2429Q191.492 33.6257 193.549 32.7644Q195.605 31.903 197.978 31.903Q200.351 31.903 202.39 32.7644Q204.447 33.6257 205.994 35.2429Q207.541 36.8601 208.402 39.198Q209.281 41.5358 209.281 44.489Q209.281 47.4421 208.402 49.7976Q207.541 52.1355 205.994 53.7526Q204.447 55.3698 202.39 56.2312Z" fill="#FFFFFF" transform="translate(36 98)" />
  </g>
</svg>